<?xml version="1.0" standalone="no"?>
<!DOCTYPE svg PUBLIC "-//W3C//DTD SVG 20010904//EN"
 "http://www.w3.org/TR/2001/REC-SVG-20010904/DTD/svg10.dtd">
<svg version="1.0" xmlns="http://www.w3.org/2000/svg"
 width="256.000000pt" height="256.000000pt" viewBox="0 0 256.000000 256.000000"
 preserveAspectRatio="xMidYMid meet">
<metadata>
Created by potrace 1.14, written by Peter Selinger 2001-2017
</metadata>
<g transform="translate(0.000000,256.000000) scale(0.100000,-0.100000)"
fill="#000000" stroke="none">
<path d="M1523 2503 c4 -6 -9 -10 -27 -11 -18 -1 -44 -5 -57 -10 -13 -5 -32
-8 -41 -7 -10 2 -18 -1 -18 -6 0 -5 -3 -8 -7 -7 -18 3 -142 -53 -198 -90 -110
-73 -225 -183 -306 -292 -27 -36 -53 -71 -59 -77 -6 -7 -7 -13 -3 -13 4 0 3
-4 -3 -8 -12 -8 -45 -68 -43 -78 0 -4 -5 -10 -13 -15 -7 -5 -13 -12 -13 -16
-1 -4 -6 -18 -13 -30 -7 -13 -10 -23 -7 -23 4 0 -1 -7 -9 -16 -9 -8 -14 -20
-11 -25 4 -5 2 -9 -3 -9 -6 0 -16 -20 -23 -45 -7 -25 -16 -45 -20 -45 -3 0 -6
-7 -7 -15 -1 -8 -3 -22 -4 -30 -1 -8 -6 -15 -11 -15 -6 0 -7 -3 -4 -6 3 -4 2
-15 -4 -26 -6 -11 -12 -27 -14 -37 -2 -10 -10 -40 -18 -68 -9 -28 -13 -54 -10
-57 4 -3 1 -6 -5 -6 -6 0 -9 -7 -6 -15 3 -8 2 -20 -2 -27 -9 -14 -9 -16 -19
-88 -3 -25 -9 -61 -12 -80 -3 -19 -6 -55 -7 -80 -1 -25 -5 -51 -9 -57 -4 -6
-2 -15 4 -19 8 -4 7 -9 -2 -15 -11 -7 -11 -9 -1 -9 9 0 10 -5 2 -19 -7 -13 -7
-22 0 -26 7 -4 7 -12 0 -25 -7 -13 -7 -21 0 -25 8 -5 7 -11 -1 -21 -8 -10 -8
-14 -1 -14 7 0 9 -7 5 -17 -4 -10 -6 -31 -5 -48 3 -44 12 -127 15 -150 14 -82
21 -112 29 -122 5 -7 7 -17 3 -23 -3 -5 -1 -10 4 -10 6 0 11 -7 11 -16 0 -19
30 -86 42 -95 5 -3 10 -16 11 -27 1 -12 7 -22 14 -22 7 0 10 -9 8 -20 -2 -11
0 -18 4 -15 5 2 19 -11 32 -30 13 -19 30 -35 37 -35 6 0 12 -6 12 -14 0 -8 5
-18 12 -22 7 -5 8 -3 3 6 -5 9 -4 11 3 6 7 -4 12 -14 12 -22 0 -12 6 -16 26
-13 4 0 10 -4 13 -9 3 -6 13 -12 21 -14 8 -2 22 -10 30 -18 8 -9 29 -17 45
-18 17 -1 31 -6 33 -12 2 -5 11 -6 20 -3 14 4 15 3 2 -5 -10 -8 -18 -8 -27 -1
-7 6 -17 8 -23 4 -5 -3 -10 -1 -10 6 0 7 -3 10 -6 6 -4 -3 3 -18 15 -33 11
-15 21 -22 21 -17 0 5 -5 14 -12 21 -9 9 -9 12 -1 12 7 0 15 -5 18 -10 10 -16
39 -7 52 15 10 18 11 18 10 -7 -1 -14 -5 -24 -9 -21 -5 2 -8 -1 -8 -7 0 -15
25 -7 26 8 1 7 2 17 3 24 0 7 7 4 15 -7 7 -10 20 -16 28 -13 8 4 21 2 29 -4
11 -8 11 -9 -3 -4 -21 6 -30 -5 -17 -24 7 -12 9 -12 9 -1 0 8 6 11 16 7 8 -3
12 -2 9 4 -8 13 1 13 26 -1 11 -5 16 -15 13 -21 -4 -7 -2 -8 5 -4 8 6 9 12 2
20 -6 7 -7 17 -3 21 4 5 2 5 -5 1 -6 -3 -27 3 -45 14 -18 11 -28 20 -23 20 6
0 21 -7 33 -16 21 -15 48 -11 37 6 -3 4 4 6 15 3 11 -3 23 -9 26 -14 3 -5 13
-9 22 -9 14 0 13 4 -6 18 -22 17 -22 18 -3 18 11 0 18 -2 16 -5 -3 -2 7 -15
21 -28 27 -25 43 -31 26 -10 -8 9 -8 17 0 27 8 13 9 12 5 -2 -3 -9 1 -19 8
-22 9 -3 12 -12 8 -22 -5 -13 -1 -12 15 4 24 24 30 41 8 23 -10 -8 -16 -9 -21
-1 -3 5 1 10 10 10 9 0 13 5 10 10 -4 6 -11 8 -16 5 -5 -4 -9 -2 -9 3 0 5 14
9 31 10 17 0 39 8 48 16 23 21 51 5 32 -18 -8 -9 -19 -16 -25 -16 -6 0 -3 7 7
14 11 9 14 17 8 20 -6 4 -16 -2 -22 -12 -8 -13 -19 -17 -33 -14 -19 5 -19 4
-7 -11 9 -12 17 -14 26 -7 6 5 15 7 18 3 4 -3 14 0 24 8 15 12 16 12 10 -5 -7
-16 -5 -17 9 -5 10 8 12 15 5 17 -8 3 -8 9 -1 23 6 10 7 19 2 19 -5 0 -9 7 -9
15 0 21 17 19 18 -2 3 -42 5 -46 19 -50 12 -4 13 -3 1 5 -15 11 -7 32 12 32 8
0 8 -3 -1 -9 -11 -7 -10 -9 3 -14 9 -4 14 -3 11 2 -3 5 2 15 11 22 15 12 16
12 10 -3 -3 -10 -1 -20 6 -24 7 -4 9 -4 5 1 -14 15 11 42 37 40 14 -2 27 1 30
5 3 5 -7 7 -22 4 -23 -4 -26 -3 -15 8 7 7 18 13 25 13 7 0 11 9 9 20 -3 20 -2
20 13 1 8 -11 15 -15 15 -9 0 7 -8 20 -17 29 -17 17 -17 17 -1 11 10 -3 20 -2
23 3 4 6 1 10 -5 10 -6 0 0 11 14 23 14 13 22 28 18 32 -4 5 8 -2 27 -15 19
-13 31 -18 26 -10 -16 27 -9 55 24 89 25 27 35 31 44 22 9 -10 8 -11 -5 -6
-10 4 -18 5 -18 2 0 -14 13 -37 22 -37 5 0 7 4 3 9 -3 5 -1 12 5 16 7 4 6 13
-1 27 -9 16 -7 23 11 35 18 12 19 17 8 31 -12 13 -10 14 9 4 30 -16 42 -14 20
2 -18 14 -18 14 2 21 13 4 18 12 15 23 -5 14 -4 15 5 2 8 -11 7 -18 -5 -27
-14 -11 -14 -12 4 -10 11 0 20 6 19 12 -1 5 4 9 11 7 8 -1 11 2 7 8 -3 6 -11
8 -16 5 -5 -4 -9 -1 -9 6 0 6 8 9 19 6 14 -3 18 -1 14 9 -3 9 -13 12 -24 9
-11 -4 -19 -2 -19 4 0 6 3 10 8 10 20 -3 32 2 26 13 -4 7 -3 8 5 4 6 -4 9 -11
6 -16 -3 -5 0 -12 7 -16 7 -4 10 -4 6 1 -4 4 -2 15 5 23 9 13 9 14 0 8 -7 -4
-13 -3 -13 2 0 11 47 51 54 46 3 -2 2 1 -3 7 -5 6 -7 18 -4 25 4 10 10 11 26
3 21 -10 21 -10 3 5 -14 12 -23 13 -33 5 -10 -9 -14 -7 -19 7 -4 11 -9 23 -12
28 -3 5 0 6 6 2 7 -4 12 -14 12 -23 0 -19 13 -9 16 12 1 8 -3 15 -9 15 -7 0
-4 5 5 11 9 5 15 16 12 23 -3 8 0 17 7 22 8 5 10 3 4 -6 -6 -9 -4 -11 4 -5 10
6 11 3 3 -12 -9 -15 -8 -20 4 -20 8 0 13 6 10 13 -3 8 -1 16 4 19 6 4 10 12
10 18 0 8 -3 8 -9 -2 -6 -10 -10 -10 -16 -1 -4 6 -14 9 -22 6 -8 -3 -11 -1 -8
4 4 6 14 9 22 8 9 -2 18 3 20 10 3 6 0 12 -7 12 -6 0 -8 5 -5 10 5 8 12 7 23
-2 10 -7 7 -1 -5 12 -12 14 -22 30 -23 35 -1 6 -4 12 -7 15 -4 3 -3 -1 1 -7 4
-8 2 -13 -6 -13 -11 0 -10 -2 0 -9 11 -7 11 -9 -1 -14 -12 -4 -14 0 -11 20 3
14 10 35 15 45 6 11 8 22 6 25 -3 2 -8 -5 -12 -16 -3 -12 -11 -21 -17 -21 -6
0 -7 8 -3 18 11 29 11 34 -5 39 -13 4 -13 3 0 -6 13 -9 13 -11 -2 -11 -18 0
-25 24 -10 33 4 2 1 2 -5 1 -7 -2 -16 2 -20 9 -5 7 -17 19 -27 27 -18 13 -19
13 -11 0 6 -11 3 -10 -12 3 -11 9 -23 14 -26 10 -4 -3 -7 -2 -7 4 0 5 -7 10
-15 11 -8 1 -22 3 -30 4 -8 1 -15 8 -15 17 0 11 -3 12 -8 4 -7 -11 -36 -3 -95
28 -10 5 -22 7 -27 4 -6 -4 -10 -1 -10 6 0 7 -3 9 -7 6 -3 -4 -12 -2 -19 4 -7
6 -26 11 -43 11 -17 1 -31 6 -31 12 0 7 -3 7 -8 1 -10 -14 -52 -17 -52 -4 0 7
-6 7 -17 -2 -15 -12 -16 -12 -9 6 4 11 4 16 0 12 -4 -4 -13 1 -21 11 -10 13
-13 14 -11 2 2 -8 8 -18 13 -22 6 -5 4 -8 -5 -8 -13 0 -13 -2 0 -11 13 -9 13
-10 -2 -6 -9 3 -19 1 -22 -6 -3 -9 -5 -8 -5 1 -1 7 -5 11 -9 8 -4 -2 -8 4 -8
15 0 18 2 19 12 4 7 -9 15 -12 18 -6 4 5 2 13 -4 16 -8 5 -8 11 -1 19 14 16 4
26 -17 19 -14 -4 -15 -3 -3 5 11 8 23 5 45 -11 18 -12 26 -15 18 -6 -10 13 -8
21 9 43 11 14 17 26 12 26 -4 0 -1 6 7 13 9 7 15 19 15 27 0 8 6 18 14 21 11
4 9 7 -7 11 -13 4 -20 2 -16 -4 3 -5 -3 -12 -15 -15 -12 -3 -21 -9 -21 -14 0
-5 7 -6 15 -3 8 4 15 1 15 -6 0 -6 -4 -9 -9 -5 -6 3 -8 -4 -6 -16 2 -12 1 -18
-3 -15 -4 4 -8 12 -8 17 -1 5 -3 10 -4 12 -1 1 -4 12 -5 23 -2 17 2 21 19 18
12 -3 15 -1 8 2 -10 5 -8 10 8 21 11 8 20 20 19 26 -3 26 2 38 12 31 8 -5 8
-9 -1 -14 -9 -5 -9 -9 -1 -14 6 -4 11 -2 11 4 0 6 5 8 12 4 6 -4 8 -3 4 4 -3
6 2 15 11 21 10 6 13 11 7 11 -5 0 -16 -6 -23 -12 -11 -11 -12 -9 -7 9 4 12 2
24 -3 27 -6 4 -8 13 -5 21 6 15 29 16 52 2 6 -5 12 -4 12 2 0 5 -12 13 -27 18
-27 9 -27 10 -5 15 12 4 20 3 18 -1 -3 -4 5 -8 16 -8 20 -2 20 -1 2 12 -11 8
-28 15 -39 15 -20 1 -20 1 0 9 12 5 25 3 33 -6 8 -8 17 -11 21 -7 3 4 0 9 -6
11 -7 3 -13 9 -13 14 0 6 5 7 10 4 6 -3 10 -1 10 5 0 6 5 8 12 4 7 -4 8 -3 4
4 -4 6 -14 9 -24 6 -15 -5 -15 -4 -1 5 8 5 24 8 35 6 10 -2 21 -4 24 -4 3 -1
-2 -6 -10 -11 -9 -6 -10 -10 -3 -10 16 0 26 17 13 25 -6 4 -7 12 -3 18 5 9 3
9 -8 0 -12 -10 -15 -8 -16 10 -2 15 0 18 6 9 11 -19 19 -17 42 9 10 12 19 17
19 11 0 -6 -5 -14 -11 -17 -6 -5 -4 -12 8 -21 10 -7 13 -14 7 -14 -5 0 -15 5
-22 12 -8 8 -12 8 -12 1 0 -13 28 -25 40 -18 4 3 6 15 3 28 -5 21 -5 21 10 2
8 -10 13 -26 10 -35 -3 -10 -1 -9 7 3 6 9 16 15 21 11 5 -3 16 -1 24 6 9 7 15
8 20 0 3 -5 2 -10 -2 -10 -5 0 -9 -10 -10 -22 -2 -22 -1 -22 12 2 7 14 15 23
18 20 2 -3 11 1 20 8 9 8 22 10 28 6 7 -4 9 -3 5 4 -4 7 1 10 14 9 19 -1 24
-10 21 -30 -1 -5 3 -6 9 -2 7 4 7 12 0 26 -9 15 -7 19 5 19 8 0 15 5 15 11 0
5 -6 7 -12 3 -10 -5 -10 -4 -1 6 16 17 53 23 53 9 0 -5 -4 -8 -9 -4 -11 6 -26
-13 -18 -22 3 -3 12 -1 19 3 19 12 38 14 38 3 0 -5 5 -9 11 -9 8 0 8 5 -1 15
-7 8 -16 13 -19 10 -4 -2 -8 2 -8 9 0 8 8 11 19 8 10 -2 18 -8 18 -13 0 -4 9
-7 19 -6 11 0 17 5 15 9 -3 4 -1 8 5 8 5 0 13 -5 16 -10 8 -13 25 -3 25 13 0
7 -4 6 -10 -3 -9 -14 -14 -7 -11 14 1 4 -4 16 -11 25 -11 14 -11 14 3 4 21
-16 32 -5 17 16 -10 12 -8 12 8 -1 11 -10 24 -18 29 -18 4 0 1 8 -6 18 -12 15
-12 16 2 5 9 -7 19 -9 23 -5 4 4 13 7 18 7 6 0 13 6 16 14 3 8 0 11 -5 8 -5
-3 -10 1 -10 9 0 10 4 11 11 4 6 -6 15 -5 26 5 14 13 17 13 17 0 0 -8 -5 -11
-10 -8 -6 4 -7 1 -2 -7 6 -9 4 -11 -5 -5 -8 5 -11 4 -6 -3 3 -5 0 -13 -6 -15
-7 -3 -8 -6 -3 -6 18 -1 36 15 39 34 2 11 9 21 16 23 8 3 10 0 5 -8 -5 -8 -4
-11 3 -7 5 4 9 13 8 20 -5 30 -18 57 -27 57 -5 0 -2 -11 6 -24 14 -21 14 -24
0 -29 -8 -4 -15 -2 -15 3 0 6 -9 5 -20 -2 -16 -10 -22 -10 -32 0 -11 11 -10
12 5 6 21 -8 50 14 43 32 -3 8 0 17 7 21 17 11 45 49 30 39 -7 -4 -13 -3 -13
1 0 5 6 15 13 23 6 8 2 6 -11 -5 -15 -12 -19 -21 -11 -26 6 -3 7 -9 2 -12 -5
-3 -15 3 -22 15 -7 11 -9 18 -4 15 5 -3 15 3 22 15 11 18 10 19 -11 14 -13 -3
-17 -3 -10 0 10 5 9 9 -5 20 -17 13 -17 14 2 7 18 -6 19 -5 5 12 -9 11 -10 16
-2 11 8 -5 12 0 12 14 0 14 -4 19 -12 14 -10 -6 -10 -4 0 8 8 10 9 19 3 22 -5
3 -11 1 -13 -6 -3 -7 -7 -5 -11 6 -4 9 -3 15 3 11 5 -3 8 4 7 15 -1 11 -5 20
-9 20 -4 0 -5 9 -3 20 2 11 -1 20 -7 20 -5 0 -7 8 -4 17 4 9 2 20 -4 23 -8 5
-7 9 3 13 11 4 14 -1 12 -18 -1 -15 2 -22 8 -18 6 3 7 1 3 -5 -3 -6 -2 -13 3
-17 6 -3 7 -13 4 -22 -5 -12 -3 -14 8 -8 12 8 12 6 0 -8 -9 -11 -10 -17 -2
-17 6 0 10 -3 9 -7 -2 -5 1 -9 6 -10 5 -1 13 -7 17 -15 6 -9 9 -9 9 -1 0 6 -7
18 -15 27 -17 17 -20 30 -4 20 6 -3 3 6 -7 21 -10 16 -20 34 -21 42 -7 33 -9
39 -16 51 -5 6 -14 12 -20 12 -7 0 -6 -4 3 -11 13 -9 13 -10 0 -6 -8 2 -14 10
-12 16 1 6 -4 11 -10 11 -9 0 -8 4 2 10 13 8 13 10 -2 10 -9 0 -19 4 -22 9 -3
4 5 6 18 4 13 -3 26 0 30 5 3 6 -1 8 -11 6 -10 -3 -27 2 -38 11 -11 9 -14 13
-7 10 11 -6 12 -3 3 14 -7 12 -9 26 -6 31 3 5 1 11 -4 14 -5 4 -8 -6 -6 -21 3
-25 2 -26 -11 -8 -7 11 -18 25 -24 32 -5 7 -10 17 -10 23 0 6 -4 8 -10 5 -5
-3 -10 -1 -10 5 0 6 -4 8 -10 5 -5 -3 -10 0 -10 8 0 8 -13 20 -30 27 -16 7
-27 16 -24 21 5 8 -17 14 -38 10 -5 0 -8 4 -8 10 0 5 -4 7 -10 4 -5 -3 -10 -1
-10 6 0 7 -3 9 -7 6 -3 -4 -12 -2 -19 4 -6 5 -40 11 -73 12 -34 1 -61 5 -61 8
0 3 -10 5 -22 3 -13 -1 -23 -3 -23 -4 0 -1 -8 -3 -17 -5 -10 -2 -18 1 -18 7 0
6 -5 6 -14 -1 -11 -10 -20 -10 -37 -1 -12 7 -19 8 -16 3z m609 -660 c-3 -16
-7 -22 -10 -15 -4 13 4 42 11 42 2 0 2 -12 -1 -27z m-207 -143 c-3 -5 -12 -10
-18 -10 -7 0 -6 4 3 10 19 12 23 12 15 0z m65 -5 c11 -13 10 -14 -4 -9 -9 4
-16 2 -14 -4 2 -5 -1 -11 -6 -11 -6 -1 -11 5 -12 14 -1 8 2 13 7 9 5 -3 9 0 9
5 0 15 5 14 20 -4z m-206 -36 c-4 -7 0 -9 14 -5 22 7 37 -7 26 -25 -4 -8 -9
-8 -17 0 -13 13 -30 15 -23 2 6 -8 -14 -21 -41 -27 -7 -1 -20 10 -29 24 -13
21 -14 24 -2 15 8 -7 18 -10 22 -6 4 4 4 -1 0 -12 -7 -17 -5 -18 8 -8 8 7 18
10 21 6 4 -3 8 -1 8 5 1 7 3 17 4 22 1 6 3 12 4 15 0 3 4 5 7 5 3 0 2 -5 -2
-11z m-100 -33 c8 3 17 1 21 -5 3 -6 1 -12 -4 -12 -39 -5 -44 -2 -47 21 -3 21
-2 22 6 8 6 -9 17 -15 24 -12z m-146 -21 c-2 -1 -12 -7 -24 -13 -16 -8 -21 -8
-21 3 0 7 7 11 15 7 10 -3 13 -1 8 6 -5 8 -2 10 9 6 9 -4 15 -8 13 -9z m-115
-140 c-3 -9 -8 -14 -10 -11 -3 3 -2 9 2 15 9 16 15 13 8 -4z m22 -25 c3 -5 1
-10 -4 -10 -6 0 -11 5 -11 10 0 6 2 10 4 10 3 0 8 -4 11 -10z m-44 -73 c-10
-9 -11 -8 -5 6 3 10 9 15 12 12 3 -3 0 -11 -7 -18z m-31 -86 c0 -6 -4 -12 -8
-15 -5 -3 -9 1 -9 9 0 8 4 15 9 15 4 0 8 -4 8 -9z m10 -36 c-14 -17 -30 -20
-30 -4 0 5 5 7 10 4 6 -3 10 -1 10 4 0 6 5 11 11 11 8 0 8 -5 -1 -15z m-64
-127 c3 -4 -1 -5 -10 -4 -8 1 -18 5 -22 8 -3 4 1 5 10 4 8 -1 18 -5 22 -8z
m616 -250 c-8 -8 -9 -15 0 -25 8 -11 7 -12 -6 -7 -9 3 -16 9 -16 13 0 8 22 31
29 31 3 0 0 -5 -7 -12z m-64 -155 c-2 -9 -11 -17 -21 -19 -9 -1 -15 2 -11 7 3
5 10 7 15 4 5 -4 9 1 9 9 0 9 3 16 6 16 3 0 4 -7 2 -17z m26 -32 c10 -15 -28
-41 -44 -31 -11 7 -12 10 -2 10 8 0 10 5 6 13 -5 7 0 6 11 -3 17 -14 18 -13
12 3 -6 17 7 24 17 8z m-46 -46 c3 -3 -4 -4 -16 -2 -12 2 -24 6 -28 10 -4 3 4
4 16 2 12 -2 25 -7 28 -10z m-58 -35 c0 -5 -2 -10 -4 -10 -3 0 -8 5 -11 10 -3
6 -1 10 4 10 6 0 11 -4 11 -10z m-3 -42 c-3 -8 -6 -5 -6 6 -1 11 2 17 5 13 3
-3 4 -12 1 -19z m-97 -132 c0 -2 -7 -7 -16 -10 -8 -3 -12 -2 -9 4 6 10 25 14
25 6z m-49 -39 c-10 -9 -11 -8 -5 6 3 10 9 15 12 12 3 -3 0 -11 -7 -18z m3
-33 c3 -8 2 -12 -4 -9 -6 3 -10 10 -10 16 0 14 7 11 14 -7z m-58 -19 c-1 -8
-5 -17 -8 -21 -5 -4 -4 16 1 34 3 9 9 -1 7 -13z m-61 -34 c3 -5 2 -12 -3 -15
-5 -3 -9 1 -9 9 0 17 3 19 12 6z m10 -39 c-3 -3 1 -12 8 -20 7 -9 7 -13 1 -9
-6 3 -21 -5 -34 -18 -13 -13 -26 -22 -31 -20 -4 3 -10 1 -14 -5 -4 -6 -11 -8
-16 -4 -5 3 -7 10 -3 15 3 5 10 7 15 4 5 -4 9 -1 9 5 0 7 7 10 15 6 23 -8 18
11 -7 28 -12 9 -17 16 -11 16 7 0 15 -5 18 -10 4 -6 11 -7 17 -4 7 4 8 2 4 -4
-4 -7 -3 -12 2 -12 16 0 22 13 12 25 -7 8 -5 12 5 12 8 0 13 -3 10 -5z m-198
-88 c-3 -3 -12 -4 -19 -1 -8 3 -5 6 6 6 11 1 17 -2 13 -5z m-293 -40 c3 -8 2
-12 -4 -9 -6 3 -10 10 -10 16 0 14 7 11 14 -7z"/>
<path d="M1805 1640 c3 -5 8 -10 11 -10 2 0 4 5 4 10 0 6 -5 10 -11 10 -5 0
-7 -4 -4 -10z"/>
<path d="M2150 2139 c0 -5 5 -7 10 -4 6 3 10 8 10 11 0 2 -4 4 -10 4 -5 0 -10
-5 -10 -11z"/>
<path d="M2157 2019 c7 -7 15 -10 18 -7 3 3 -2 9 -12 12 -14 6 -15 5 -6 -5z"/>
<path d="M2159 1983 c-13 -17 -13 -17 6 -3 11 8 22 16 24 17 2 2 0 3 -6 3 -6
0 -17 -8 -24 -17z"/>
<path d="M2162 1961 c-11 -6 -9 -9 5 -13 12 -3 20 0 20 8 0 16 -6 17 -25 5z"/>
<path d="M2073 1717 c-12 -20 -11 -34 3 -34 7 0 12 5 11 11 -2 9 3 11 35 15
16 2 4 11 -20 16 -12 2 -25 -2 -29 -8z"/>
<path d="M2027 1703 c-3 -5 1 -14 9 -21 12 -10 14 -10 14 2 0 17 -16 30 -23
19z"/>
<path d="M1895 1620 c-3 -5 -1 -10 4 -10 6 0 11 5 11 10 0 6 -2 10 -4 10 -3 0
-8 -4 -11 -10z"/>
<path d="M1775 1580 c3 -5 8 -10 11 -10 2 0 4 5 4 10 0 6 -5 10 -11 10 -5 0
-7 -4 -4 -10z"/>
<path d="M1456 1471 c-3 -5 2 -15 11 -22 12 -10 14 -10 9 -1 -4 6 -3 12 3 12
5 0 12 -6 14 -12 4 -10 6 -10 6 -1 1 16 -36 36 -43 24z"/>
<path d="M1426 1361 c-3 -4 4 -7 14 -6 27 2 33 10 10 12 -11 1 -22 -2 -24 -6z"/>
<path d="M1950 900 c0 -5 5 -10 11 -10 5 0 7 5 4 10 -3 6 -8 10 -11 10 -2 0
-4 -4 -4 -10z"/>
<path d="M1920 740 c-13 -8 -13 -10 2 -10 9 0 20 5 23 10 8 13 -5 13 -25 0z"/>
<path d="M1757 471 c-16 -16 -16 -20 -2 -31 14 -12 20 -7 16 14 -1 4 4 14 10
22 17 20 -3 16 -24 -5z"/>
<path d="M1800 486 c0 -2 7 -7 16 -10 8 -3 12 -2 9 4 -6 10 -25 14 -25 6z"/>
<path d="M1682 390 l-23 -19 21 -11 c12 -6 24 -9 28 -6 3 3 0 6 -7 6 -7 0 -9
5 -6 10 4 6 12 7 18 3 8 -5 8 -2 0 9 -7 8 -10 18 -6 21 14 14 -3 5 -25 -13z"/>
<path d="M1606 311 c-13 -14 -14 -21 -6 -26 9 -6 9 -10 -1 -16 -12 -7 -12 -10
0 -21 9 -8 11 -9 7 -1 -3 6 4 19 16 27 12 9 17 16 10 16 -7 0 -10 5 -7 10 5 8
12 7 23 -2 12 -9 11 -6 -2 10 -23 26 -19 26 -40 3z m15 -4 c-6 -8 -7 -18 -3
-22 4 -5 1 -5 -6 -1 -10 6 -10 11 -1 22 6 8 14 14 16 14 3 0 0 -6 -6 -13z"/>
<path d="M772 185 c3 -3 16 -8 28 -10 12 -2 20 -1 16 2 -4 4 -16 8 -28 10 -12
2 -19 1 -16 -2z"/>
<path d="M830 166 c0 -2 7 -7 16 -10 8 -3 12 -2 9 4 -6 10 -25 14 -25 6z"/>
<path d="M1015 100 c1 -11 5 -23 10 -27 4 -5 5 -3 2 4 -4 6 -2 13 4 15 7 2 6
8 -3 16 -12 9 -14 8 -13 -8z"/>
<path d="M1152 94 c11 -23 13 -24 19 -7 8 22 3 33 -16 33 -12 0 -12 -5 -3 -26z"/>
<path d="M1196 94 c-20 -19 -21 -31 -1 -14 8 6 19 9 24 5 7 -3 8 0 5 9 -8 20
-9 20 -28 0z"/>
<path d="M1335 100 c-3 -5 -1 -10 4 -10 6 0 11 5 11 10 0 6 -2 10 -4 10 -3 0
-8 -4 -11 -10z"/>
</g>
</svg>
